/* XPM */
static char *result[] = {
/* columns rows colors chars-per-pixel */
"50 50 54 1 ",
"  c #B6957B",
". c #B9977D",
"X c #BD997E",
"o c #BE9C82",
"O c #C29E83",
"+ c #C29F89",
"@ c #C4A186",
"# c #CAA586",
"$ c #C6A38A",
"% c #CAA68B",
"& c #CCA98D",
"* c #D2AD8E",
"= c #CBA791",
"- c #CDAB92",
"; c #D1AE94",
": c #D3AF98",
"> c #CFB09C",
", c #D4B196",
"< c #D9B496",
"1 c #D5B49B",
"2 c #D9B69B",
"3 c #D6B89D",
"4 c #DBB99E",
"5 c #E0BD9F",
"6 c #D6B7A1",
"7 c #D9B5A0",
"8 c #D7BAA3",
"9 c #DCBCA3",
"0 c #D7BCA9",
"q c #DCBEA9",
"w c #E1BEA4",
"e c #E1BEA8",
"r c #DEC0A5",
"t c #DEC2AB",
"y c #DFC5B0",
"u c #E2C2A6",
"i c #E3C4AC",
"p c #E8C6AC",
"a c #E6C9AE",
"s c #EAC9AE",
"d c #E3C6B1",
"f c #EAC7B1",
"g c #E5CAB3",
"h c #EACCB4",
"j c #E6CDBA",
"k c #EACEB9",
"l c #ECD1B5",
"z c #E7D1BA",
"x c #EDD1BB",
"c c #F1D2B6",
"v c #F1D4BC",
"b c #EED3C0",
"n c #F2D6C0",
"m c #F2D8C1",
/* pixels */
"qtt1iqqdtttjddgdgqdgddgdi8gt3tdtiygitdt8idg8tdt3td",
"tqit08tttgiddqjjd0dkgiqdiadd3tiitgiitd00gdtdq0titi",
"dtigttqqtddtt8dddgdddxdddgq0q0gid88diq81iiig00ttdt",
"gtdtddd88gjgtttdgdtqgg8tti8rtqitgqtg06dittt8d0qddt",
"ttqttid9q0d819tdt119hd99iqgg008gitda8i92tdii0tqtgg",
"ditdit1iggdq69tdzttdggddtgdittxdttdtdd8id98dtdddtq",
"8qid8ddigdidd0gkg0riixgitq2td9idgiqii88t0dgdgdiiid",
"6qtq6dgdtqidtqgkdddqdat9tdggtidtd9idgddttdd8ddddkq",
"qtt6qq9idtdjdidxjkdi39dhtqq6dt39idddttdqdkqqkgdkd8",
"gdqittgkdgdqigdi98t9tki22i0ththd919g,;qty0dkg4ijiq",
"dgddhiqttdhgdq2,qiaaiiitaitrid89rih9-:gd6tii9dd8gg",
"gdgg6;2qggxg8rikbt9uihhr9ix912ug9ai89qdal0ixtdiikq",
"dkdq9ddgdtiddddiigkh9398ri4qdga3td2ahgdd22hlqixdk8",
"gddi8gdtihdiqqq9adiq,<iieq498q4iaiddg83ui9idhkt9xk",
"0qddkaigg91dkgi31294a8&219taa9;ihiq,i9qhk8fd3>;ixt",
"dgdghidt9tghdi92ir2fa&,r,dduiigxd3,axiaddfk8=&3xgd",
"gii21dgqag8&,gitiddi4whhai1axdito%rxi9qhdh0-hdgd88",
"3iq9ihdqg979ut,2ah2O1at,%&ilq2di2smdqqxlarri19d=1q",
"ihddkdhxa9ihiaiad3,ali=&4dh8-aguuiq43idhi9g93hh4ak",
"89dgidi3&1dkit94$%pl99adhhu2il222--rai4e;1d9kxq0hk",
"qgggdt119glq19,&2diqaa4-a92qrq8293ihkgiliigihi;9ah",
"8=-;60ialx1wq-2ai32a2&;9fai,49%@@;ihgq3q,aaaddkxid",
"%O,;-8wit1ii%ai129ghaidlhf,&ra1,9lxq;&299ghaglxq9d",
"9qgdhiqlktgddx949ef,uiu-29ulxdilhu2$%il6axd22dq%%2",
"i44ht-i739idqtia%uruhh9&2qi4r&9ai944fvi8nk92ag12gd",
"1rgq,a8XO4i29iaqalafr2,9hd4iu;wfaiahxi;2iiefhi-ih8",
"idq2f9@2ga;,haufh9-u914cliax,2s9;,efi;%9hgaiq;7dgq",
"yqdda;ig:&2xdifaq;4hi14h2ehi$;u92&9r2iicd13214ax08",
"$qt==2id2ixtiga4,uxi;9varha2*4hi,4hiuiiq&O$92ufg,,",
"9i$%:wkhqq92dhu4al2&<i3wa39w9hli9hlfhi2-%-4hghxi0a",
"k9ihhdgq9a2fd33af,X@&-&i%&wufhliadaildqiixvxiidqta",
",2k92a8=di9ii9341$X#4fld;92&&-4w4ui949ihxi332ueiai",
"iki48-;ihidi=,u4;&<ulf0,22@oO%,9ie42129ha2$$2ekdii",
"g1;-o@;fgil1X2fk44ha4&&4i22,#*uaupi2uufg22=2ilg-,9",
"2,;-&1ff94;$9fiisl8%&;ihhllhfllaa9;2hlh2-29saf-;ua",
"dakhiidi,O%id;&2aiwuplle02;&1ii4&@1wihi3effhlq$,hv",
"tddeehkaw,fl4,;%&4hli1%@<&&;;u9%X%whli:4p9ikhi-9hh",
"4eq,ekaeflxhhlf2ea9@.  -u4a44i4&&<ilh;o,i;wiiiuhhl",
"ia=%ig2;efe2,ihhh,X .o$iuiiufi9<wsvlu,O%29aq2atxlk",
"j3o;pq&,31,w9i;29OO@%,fhufw2wiaivhaiiaw&&ixiid99uq",
"3&&fhu9i:;sffi;4w;,usvvhasp24iuat%,2;=,ueit4ie3242",
"94ugfali9hg9e2,uusvxlsi9qiuuhu4eu42,o.$uhl9:;9929q",
"ialhhhi9ii1;2$@rikg9<;%$<iuupspipfu1$O,ahg,44iqiid",
"92ikd22;1,,,-X$ugf4&&O&4si;o&4u924p49ulhht<ifxegkd",
"29ki91$$22u9&#2fg9-@$9sha;oO$&241&4suidiai9ahd3uad",
"gkiw2&#,4ik91uhha2%*ui992$O#&14i-@;fhh927%O9i1;2tk",
"gr21-%;4fht<4slhi<;iha444$<wuuii:;,uh0%@@+ ;22e19e",
"99;-@;,ili%%whhapschawuf2;wilueeuiih9$oOO%%<9ee;u9",
",--;#:ehg;$2shffq992%%292ealq%25issi;@OO%14iaii9i9",
"o%-%$2ih9$;pshh2-&&@X@;;19au&,uipisu%@@#4usvkfa3it"
};
