/* XPM */
static char *result[] = {
/* columns rows colors chars-per-pixel */
"50 50 236 2 ",
"   c #1B1C1C",
".  c #292918",
"X  c #3A381B",
"o  c #302E19",
"O  c #27262A",
"+  c #342F27",
"@  c #383327",
"#  c #2A2A36",
"$  c #332D36",
"%  c #353234",
"&  c #3B3738",
"*  c #1F2027",
"=  c #403D1C",
"-  c #443D26",
";  c #433D34",
":  c #3F4710",
">  c #4A451C",
",  c #544D1B",
"<  c #544C18",
"1  c #55521D",
"2  c #5C531C",
"3  c #5C5814",
"4  c #635C15",
"5  c #62561C",
"6  c #645A1C",
"7  c #6C5D1C",
"8  c #6B5B15",
"9  c #6B5C10",
"0  c #5F6215",
"q  c #6B650F",
"w  c #6B6214",
"e  c #6B631B",
"r  c #6E6A1B",
"t  c #686516",
"y  c #726415",
"u  c #736A13",
"i  c #7A6C15",
"p  c #72651C",
"a  c #746B1B",
"s  c #7A6D1C",
"d  c #7B651B",
"f  c #7D7216",
"g  c #7C721B",
"h  c #787518",
"j  c #75710F",
"k  c #4B4525",
"l  c #554D23",
"z  c #584C28",
"x  c #5D5423",
"c  c #5C522B",
"v  c #575328",
"b  c #494436",
"n  c #544B37",
"m  c #5F5535",
"M  c #635B24",
"N  c #6A5E23",
"B  c #625B2A",
"V  c #665828",
"C  c #6A5D3A",
"Z  c #665B36",
"A  c #715E2F",
"S  c #6C6323",
"D  c #6D622B",
"F  c #686425",
"G  c #726523",
"H  c #746B23",
"J  c #7A6C24",
"K  c #71642C",
"L  c #746A2A",
"P  c #7B692D",
"I  c #7B7123",
"U  c #7A7226",
"Y  c #6A6336",
"T  c #756B3B",
"R  c #766736",
"E  c #7D7135",
"W  c #6C7023",
"Q  c #5E6128",
"!  c #303243",
"~  c #1F2F7C",
"^  c #423D41",
"/  c #484548",
"(  c #524E49",
")  c #5C5647",
"_  c #5C595B",
"`  c #595658",
"'  c #4A4957",
"]  c #665C47",
"[  c #615B53",
"{  c #635D5C",
"}  c #6A5C57",
"|  c #6C6349",
" . c #746442",
".. c #776A48",
"X. c #7C7347",
"o. c #696359",
"O. c #766A57",
"+. c #7B7259",
"@. c #5C5B64",
"#. c #5D5D6C",
"$. c #595663",
"%. c #4E5377",
"&. c #5B5D7D",
"*. c #5D5B72",
"=. c #625E63",
"-. c #625C66",
";. c #645D70",
":. c #5E6069",
">. c #5E627C",
",. c #5E6171",
"<. c #656264",
"1. c #6A6563",
"2. c #64636A",
"3. c #696869",
"4. c #746D65",
"5. c #7D746B",
"6. c #646578",
"7. c #726E76",
"8. c #777376",
"9. c #846C1B",
"0. c #83731B",
"q. c #877919",
"w. c #8A7714",
"e. c #826D27",
"r. c #837323",
"t. c #83742A",
"y. c #8A7727",
"u. c #957C25",
"i. c #867736",
"p. c #8F7932",
"a. c #856C47",
"s. c #867848",
"d. c #927C47",
"f. c #887A57",
"g. c #8A6E51",
"h. c #857866",
"j. c #847C77",
"k. c #957C71",
"l. c #92801C",
"z. c #9A8427",
"x. c #958337",
"c. c #8B8026",
"v. c #A5892B",
"b. c #938449",
"n. c #8D8258",
"m. c #958857",
"M. c #8F8750",
"N. c #8D8467",
"B. c #978866",
"V. c #8D8574",
"C. c #958A76",
"Z. c #9B937A",
"A. c #9D926A",
"S. c #A69974",
"D. c #A49565",
"F. c #ACA475",
"G. c #293B8A",
"H. c #273E94",
"J. c #243EA4",
"K. c #2E418E",
"L. c #3A4A8A",
"P. c #2C4295",
"I. c #294298",
"U. c #3C4D94",
"Y. c #354A9A",
"T. c #354997",
"R. c #3E5098",
"E. c #2C44A4",
"W. c #2B45AA",
"Q. c #2A45AA",
"!. c #344BA3",
"~. c #334AA8",
"^. c #3B53AA",
"/. c #314CB2",
"(. c #3A55B4",
"). c #2D48B3",
"_. c #424E88",
"`. c #49558B",
"'. c #545B83",
"]. c #555C87",
"[. c #44549B",
"{. c #4C5B9C",
"}. c #465696",
"|. c #525E95",
" X c #5D6283",
".X c #58669A",
"XX c #5F7194",
"oX c #676988",
"OX c #78788A",
"+X c #646A95",
"@X c #6D7399",
"#X c #767696",
"$X c #6F708D",
"%X c #4256AA",
"&X c #485BA7",
"*X c #425EBB",
"=X c #455CB4",
"-X c #5464A3",
";X c #5465AC",
":X c #5A69A9",
">X c #4A62B7",
",X c #576AB4",
"<X c #5C71BD",
"1X c #4F61AA",
"2X c #616DA7",
"3X c #6976A6",
"4X c #6E7DBB",
"5X c #6676B8",
"6X c #707AAD",
"7X c #4F6AC3",
"8X c #687CC1",
"9X c #837E98",
"0X c #7984B6",
"qX c #7D809F",
"wX c #798CCD",
"eX c #86839A",
"rX c #988E8A",
"tX c #A4988C",
"yX c #B3AB96",
"uX c #B3AA8F",
"iX c #888AA5",
"pX c #9595A9",
"aX c #8C94B8",
"sX c #989BB4",
"dX c #888DAF",
"fX c #AAA9B9",
"gX c #BDB6A6",
"hX c #9DA0B7",
"jX c #8894C4",
"kX c #959EC2",
"lX c #9CA2C4",
"zX c #BABBCC",
"xX c #CDCCD5",
"cX c #CFCFD7",
"vX c #D3D6E0",
"bX c None",
/* pixels */
"bXbXbXbXbXbXbXbXbXbXbXbXbXbXbXbXbXbXbXbXbXbXbXbXbXbXbXbXbXbXbXbXbXbXbXbXbXbXbXbXbXbXbXbXbXbXbXbXbXbX",
"bXbXbXbXbXbXbXbXbXbXbXbXbXbXbXbXbXbXbXbXbXbXbXbXbXbXbXbXbXbXbXbXbXbXbXbXbXbXbXbXbXbXbXbXbXbXbXbXbXbX",
"bXbXbXbXbXbXbXbXbXbXbXbXbXbXbXbXbXbXbXbXbXbXbXbXbXbXbXbXbXbXbXbXbXbXbXbXbXbXbXbXbXbXbXbXbXbXbXbXbXbX",
"bXbXbXbXbXbXbXbXbXbXbXbXbXbXbXbXbXbXbXbXbXbXbXbXbXbXbXbXbXbXbXbXbXbXbXbXbXbXbXbXbXbXbXbXbXbXbXbXbXbX",
"bXbXbXbXbXbXbXbXbXbXbXbXbXbXbXbXbXbXbXbXbXbXbXbXbXbXbXbXbXbXbXbXbXbXbXbXbXbXbXbXbXbXbXbXbXbXbXbXbXbX",
"bXbXbXbXbXbXbXbXbXbXbXbXbXbXbXbXbXbXbXbXbXbXbXbXbXbXbXbXbXbXbXbXbXbXbXbXbXbXbXbXbXbXbXbXbXbXbXbXbXbX",
"bXbXbXbXbXbXbXbXbXbXbXbXbXbXbXbXbXbXbXbXbXbXbXbXbXbXbXbXbXbXbXbXbXbXbXbXbXbXbXbXbXbXbXbXbXbXbXbXbXbX",
"bXbXbXbXbXbXbXbXbXbXbXbXbXbXbXbXbXbXbXbXbXbXbXbXbXbXbXbXbXbXbXbXbXbXbXbXbXbXbXbXbXbXbXbXbXbXbXbXbXbX",
"bXbXbXbXbXbXbXbXbXbXbXbXbXbXbXbXbXbXbXbXbXbXbXbXbXbXbXbXbXbXbXbXbXbX&XjXkXbXbXbXbXbXbXbXbXbXbXbXbXbX",
"bXbXbXbXbXbXbXbXbXbXbXbXbXbXbXbXbXbXbXbXbXbXbXbXbXbXbXbXbXbXbXbXbXbXY.R.:X6XbXbXbXbXbXbXbXbXbXbXbXbX",
"bXbXbXbXbXbXbXbXbXbXbXbXbXbXbXbXbXbXbXbXbXbXbXbXbXbXbXbXbXbXbX^.bX[.H.P.U.3X#XbXbXbXbXbXbXbXbXbXbXbX",
"bXbXbXbXbXbXbXbXbXbXbXbXbXbXbXbXbXbXbXbXbXbXbXbXbXbXbXbXbXbX%XE.E.Y.H.P.}.#XiX@XlXbXbXbXbXbXbXbXbXbX",
"bXbXbXbXbXbXbXbXbXbXbXbXbXbXbXbXbXbXbXbXbXbXbXbXbXbXbXbXbXbX-XI.P.R.%X-X|.hXpX+XsXvXfX+X_.bXbXbXbXbX",
"bXbXbXbXbXbXbXbXbXbXbXbXbXbXbXbXbXbXbXbXbXbXbXbXbXbXbXbXbX-X:XP.H.Y.0X.X.XfXiX9X_.2XcXfXpXiXbXbXbXbX",
"bXbXbXbXbXbXbXbXbXbXbXbXbXbXbXbXbXbXbXbXbXbXbXbXbXbXbXbX!.}.+XK.H.Y..XK.{.pX9X`.~ 2XxXhXcXxXsX@X@X:X",
"(./.bXbX,X(.bXbXbXbXbXbXbXbXbXbXbXbXbXbXbXbXbXbXbXbX!.{.T.U..XP.H.I.U.P.2X@X|._._.qXcXxXfXzXzXfXfXiX",
"!.J.4XlX-XE./.bXbXbXbXbXbXbXbXbXbXbXbXbXbXbXbXbXbX1XU.T.U.U.+X.XP.!.[.{.|.%. X$XsXdXpXpXiX9XeX9Xj. .",
"J.!.5XlX!.E./.bXbXbXbX7XbXjXbX7X>X*X7XbXbXbXbXbX^.[.[.T.U.T.3X6X}.+XL.G.+X#XeX#X$X9X#X$X9XpXeX .5  .",
"!.4X0X4XR.~./.~.=XwX5X<XjX8X5X<X(.(.7XbXbXbXbX&XT.U.[.T.[.P.2XpX+XoXK.U.qX$X$X#X+X+X$X#X@X8.] l C V.",
"<X4X4X&XE.E.E.Q.E.7XwX,X>X<X,X0X>X(.*X*XbXbXbXR.U.{.P.I.T.1X6X|.%.%.G.}.eXOXOXOX$X+X#X#X4.D s.f.5. .",
"=X5X~.J.E.W.W.J.E.^.8X>X1X;X5XjX4X(.>X*X7X8XY.P.P.[.H.^.0X0X.X'.`.L.G.G.OXOX7.oX].oXoXo.5 8 S a.h.] ",
"-X>X>X=X%X!.W.).Q.H.;XzXjX5X;X&X(.(.>X7X<XY.I.P.{.6X1X6XpXOX8.].L.L.G.%.8.7.OX8.7...S u a s a r e e ",
"] 4.9X9X2X%X~./.).J.~.lXzX0X,X^.^.^.(.5X;XK.I.{.sXaXOX..V 2 5 ) %.%.o...n.V B U 9.j y s.f.v 1 h I U ",
"l  .R e.O.oX2X,X*X).J.!.0X4X;X;X>X^.(.;XU.K..XsXsX9XY 8 8 6 8 p I E A.A.f.1 t u i y i.uX4.v W q.M.V.",
"+ ) +.t.y 2 O.oXoX;X/.Q.Y.,X,X%X,X>X0X.XL.+XiXiX8.E e 8 G e e U J 4 e t r e H 6 t w t L E i.I s E L ",
"# ` n n B l X Z Z  .'.>X^.&X;X%X=X0X@X|.XX@X+X` K G p G 6 6 s J e 3 3 t H n.h.6 a a e H m.s.7 S 8 e ",
"% ! & O $ m < 2 G l k *.:X%X2XjX0X{.L.L.U.`.[ 8 G d.s.K D t.S e t r f a X.N.S 3 e N H H t F 6 y y 8 ",
"+ ; ! $ O b x J s g y x `.;X5XxX0XK.P.I.Y.` G i.A.E , x B.f.L r h 0.e 6 e H w i.m.i.a 5 U G l t t t ",
"  O # * & ( b a s 2 3 y ) U.|.aX:X:X2X.X_ n.n.F.uXx 3 X.Z.T I a r 8 1 3 R D.d.C.m.9.s p y.h W a h g ",
"$ * * @ B b % l H p 1 > r $.L.U.qXV.4.N.p.d.S.yXf.t a B.X.e u r r R ..s.yXgXh.J 9.u i e l ) C 6 S S ",
"$ O + T O.T m n b N G l r H | ` | S W t.i 8 S.n.t f x.S.W a b.M.t.d.A.gXtXn.S i j 0 K Y b +.E D 3 6 ",
"+ + 1 & % & Y b ; x K K G 3 w u p.m.x < z , 5 3 9 i D.V.r m.uXs.i.n.uXN.+.h.X.Y 1 o.Z.S.U H t 4 t e ",
"c.q.q.Y ; ^ h.Z.k.C.yXtXB.Y 1 < g n.) XX:XXX3.O.Y M a.Z g.yXC.a.f.f.S.X.O.g.5.4.] tXyXf.J t 0 J R j.",
"q.B b.D.b.m.B.B.4.O.5.C.h.Z.m.W F + ! *X*X*X=X&X&X'.;.2.j.Z.O...B.f.S.j.C.V.s.K a s.s.L a H X.rXj.rX",
"y.J r.J K P P g.O./ ` +.4.C.A.F.5.>.|.5XqXXX^.%X{.}.]. X6.7.O.C a.g.k.rXD.s 9 9 u q 2 k Y T f.a.O.f.",
"f f y 5 z n ; C V.tXC.b o.1.O.N.C.rX] f.n.Y '.=X&X}.].]. X6.7.3.}  .a.a.y i i i.+.j.j...r j q i J L ",
"2 e 8 > k Z ; a.B.tXj.% + ) o.& b o.T 0.i 6 n {.[.|.].].'.6.>.,.2.3.+...Y P B.tXrXV.b.r.f j h u 9.u ",
"= 5 2 8 G N A J E | & @.% ( ` O # & m l.i g F =.[.`.].].].&.6.*.,.;.3.1.O. .R g.a.G y i 0.l.0.a 0.i ",
", l t e s f 9.s w 6 C.tX( @ / ( ' # & z.q.q.g U 7.$X`.'.>.>.>.;.:.#.2.3.1.O.|  .A A 5 4 q q f f i 9.",
"x A S M p q.G 5 = c 5.tX( + ^ { 5./ / y.v.z.v.z.u.b.&.'.'.>.>.;.;.:.2.2.1.1.o.o.} O.R 7 8 9 w w i w.",
"B B - X S c.e X . @ % b k z # ! ' _ / z J p.0.9.9.e.a.#.'.&.&.#.2.-.2.2.2.<.<.3.} o.o.C A V N 8 8 8 ",
"k k o   1 x.U l = o O & . - $ ! / b & b p.7 p.u.e.e.w.e.| ;.*.#.-.2.1.1.2.<.<.@.:.#.<.o.] Z Z A V V ",
"k + ' O + c K a F k . O   - ; O % + # & T p.u.u.9.9.y y q.p.i.X. .1.-.2.<.o.2.<.o.:.<.{ [ [ ] ] Z C ",
". b ' # O @ c e H 6 X =   . = = k 6 k b ^ f.d.u.0.9.0.w.w.w.j l.q.} #.-.1.1.1.<.@.#.@.@.@._ [ ] ] ] ",
"@ & O + - l N 1 1 u s 1   . k e.s q.U Z b ] C R e.u.q.q.a 9.u u j Y #.#.=.} =.-.@.@.@.$._ _ [ ) [ } ",
"& n k M t.K Z , , > S 6 < < B t.E L J S r R n l M p.u.s e 8 y < : Q | o.-.=.=.{ o.-.@.@.$.$._ _ ` } ",
"  @ x L K z D M G 8 H G p M , l D D G r.q.f D D H e.p.i.G N N H Q Q W Y { -.=.{ { { @.@.@.$.@.` _ _ ",
"o o D c l 3 e x 2 5 G r.R A X > e c 5 H L a t.i.I e t.r.9.d 9.u.z.c.r W ] { $.{ } { $.#.@._ ` ` $._ ",
"2 > x c 1 t 6 V e l k c A B > M d y w M H r x E i.L t.0.p.y.e.d z.z.l.u.p D } } } } -.$.} ` _ ` ` ` ",
"W r M J e 6 , 8 e + - + x z l 6 M N H = k l k B T E t.u.u.y.e.e.p.u.u.v.b.U a S C O.$.` ` ` ` ` ` ' "
};
