/* XPM */
static char *result[] = {
/* columns rows colors chars-per-pixel */
"50 50 156 2 ",
"   c None",
".  c #030302",
"X  c #080705",
"o  c #090907",
"O  c #0D0C09",
"+  c #100F0C",
"@  c #13120E",
"#  c #161511",
"$  c #191712",
"%  c #1C1A14",
"&  c #211D16",
"*  c #291F16",
"=  c #211F18",
"-  c #24221A",
";  c #2A241C",
":  c #2E281F",
">  c #33261D",
",  c #33291F",
"<  c #2E2A21",
"1  c #332C23",
"2  c #392C21",
"3  c #353027",
"4  c #3B3126",
"5  c #373228",
"6  c #3B352A",
"7  c #3E392D",
"8  c #423225",
"9  c #483426",
"0  c #41372B",
"q  c #493729",
"w  c #423A2E",
"e  c #4A3C2F",
"r  c #533D2D",
"t  c #453D31",
"y  c #4A3F31",
"u  c #474134",
"i  c #4C4235",
"p  c #4D4639",
"a  c #544435",
"s  c #5A4534",
"d  c #534738",
"f  c #5B4738",
"g  c #554A3B",
"h  c #5A4C3D",
"j  c #614735",
"k  c #614D3B",
"l  c #6C523E",
"z  c #5A4F40",
"x  c #5E5142",
"c  c #635444",
"v  c #695645",
"b  c #665847",
"n  c #695847",
"m  c #63574C",
"M  c #65594A",
"N  c #6A5B4A",
"B  c #735742",
"V  c #745844",
"C  c #7C5C47",
"Z  c #735D4B",
"A  c #7D5E49",
"S  c #695E51",
"D  c #73614E",
"F  c #7B624D",
"G  c #6C6151",
"H  c #6C6559",
"J  c #746553",
"K  c #786753",
"L  c #7B6A56",
"P  c #756858",
"I  c #7D6D5A",
"U  c #7E705D",
"Y  c #7A6E61",
"T  c #7F7160",
"R  c #7E756C",
"E  c #805F49",
"W  c #81634E",
"Q  c #836A55",
"!  c #8A6C55",
"~  c #816E5D",
"^  c #8B6E58",
"/  c #84725D",
"(  c #8B725D",
")  c #917057",
"_  c #91735C",
"`  c #9B755C",
"'  c #9E795F",
"]  c #837563",
"[  c #8A7661",
"{  c #8D7A65",
"}  c #857A6B",
"|  c #8B7D6B",
" . c #937C64",
".. c #987C67",
"X. c #917F6A",
"o. c #987F69",
"O. c #9F8267",
"+. c #95826C",
"@. c #9A806B",
"#. c #8C877F",
"$. c #968572",
"%. c #998974",
"&. c #958B7C",
"*. c #9D8F7A",
"=. c #A4836B",
"-. c #B08A6D",
";. c #A28C74",
":. c #A88971",
">. c #B48E72",
",. c #A79176",
"<. c #A3947F",
"1. c #AA937B",
"2. c #B29176",
"3. c #BA9173",
"4. c #B49379",
"5. c #B59C7F",
"6. c #968C81",
"7. c #9A9081",
"8. c #A29282",
"9. c #AD9A85",
"0. c #A49A8B",
"q. c #AB9D8A",
"w. c #B49D83",
"e. c #B99F81",
"r. c #B49E88",
"t. c #B7A187",
"y. c #BCA386",
"u. c #B5A28B",
"i. c #B9A48A",
"p. c #AFA596",
"a. c #B0A493",
"s. c #BDAA92",
"d. c #B1A99E",
"f. c #BDB9B2",
"g. c #C7A082",
"h. c #C2A98E",
"j. c #CBAA8F",
"k. c #C4AE95",
"l. c #C6B196",
"z. c #C9B395",
"x. c #C5B39B",
"c. c #CFB799",
"v. c #D2BC9F",
"b. c #C6B9A5",
"n. c #D0BEA8",
"m. c #C4BDB4",
"M. c #D5C0A7",
"N. c #D2C2AD",
"B. c #DCC5A9",
"V. c #DFC9AD",
"C. c #C9C3BB",
"Z. c #DBCAB2",
"A. c #E6D0B6",
"S. c #E7D2B8",
"D. c #E9D4B8",
"F. c #E3DDD5",
/* pixels */
"                                                                                                    ",
"                                                                                                    ",
"                                                                                                    ",
"                                    U n h M                                                         ",
"                                  g t = 1 4 d                                                       ",
"                                J i 1 $ - u c c                                                     ",
"                                N n D y a ! ..D                                                     ",
"  6                             I O.) k l ' -.v                                                     ",
"    u                            .2.k a j W >.Q                                                     ",
"      u                         =.h.Z [ ( @.j.F Z                                                   ",
"      t                         ^ g._ 1.r.>.4.f Q                                                   ",
"        p                     +.W 3.=.W ..=.! f  .                                                  ",
"          g                 8. .k A =.W 1.4.f q (                                                   ",
"          p w           q.P N F k Z ` V 2.Q * r (                                                   ",
"            5         N.$.d w d V v C j E 9 ; s B  .l.                                              ",
"              6     b.| [ 7 t v A ; * 9 8 * ; r 4 c 1.V.                                            ",
"              w w   <.U z u h Q B ; & * $ = 2 q - c J r.                                            ",
"                p } P x u x L ( V 2 * , 2 ; q , ; n v / D.                                          ",
"                G N n 6 6 x ;./ B 8 > 4 ; 4 2 ; 6 c c L V.s.                                        ",
"                ;.f k 1 = p 1.K k 4 ; 2 1 0 ; 4 w c w n ;.| *.                                      ",
"              u.1.o.Q n ; 1 +./ f w ; 6 f 4 % 6 0 6 ; e L i.x.                                      ",
"            q.+.w. .F N u < D [ d 4 i t x 1 $ 6 t 4 1 6 S 9.Z.                                      ",
"            I L :._ ( $.a.  d / y d h 6 w ; = 1 y 1 ; ; | X.Z.                                      ",
"          x D d d e w ] p.&.w n d N h : ; - : 1 1 % ; h %.J M.                                      ",
"          x k d ; ; -   7.q.g 1 < 1 0 6 , ; 1 4 ; = d / J N B.                                      ",
"            i w 1 w       ] ~ 6 6 1 - - ; ; 1 w w u L / w J A.                                      ",
"                            8.Y 7 6 < $ $ @ ; 6 M n / v 6 9.B.S.                                    ",
"                            } m.H 6 5 ; = @ % < d x { x w +.s.B.                                    ",
"                          1 7 m.f.6 = ; $ + $ = 3 S I h 1 1 p u.                                    ",
"                          < 1 &.F.#.; $ @ % = % e y w 6 t M ] ]                                     ",
"                            M M d.C.R w 1 6 i 4 y n d 4 7 ] t.k.                                    ",
"                          n.{ c H m 2 c { 1 1 1 ; x g 0 d J i.                                      ",
"                        N.w.L g g D > , 9.g 1 1 - t w 6 z %.w.                                      ",
"                        v. .n h c v 4 & ( T i y 1 z d u M 1.h.y.                                    ",
"                      Z.t.[ i 1 i x 6 t 8.6.w d h d c g M / y.y.                                    ",
"                      x.L n g ; ; i i ] 0.m 1 d c d c w N J ,.y.z.                                  ",
"                    A.k.[ c 6 ; ; = 1 6 ; : 1 , x n n 1 d D 1.5.c.                                  ",
"                    k.[ v 6 - - = @ $ - 1 w 1 ; w d v u 6 D w.e.v.                                  ",
"                  1.K i 4 = # @ % + # - 3 4 1 3 6 w t d u d [  .t.                                  ",
"                  [ d 1 = = @ @ @ $ $ % ; < % - 6 3 t i 7 t h N 5.                                  ",
"                h.L w 1 1 ; % @ % ; = % = < - < u 6 y u t u 1 w /                                   ",
"                { b b w = ; = % % - % - ; 1 6 7 7 w d t u 6 < 1 N                                   ",
"              i.c 1 w 5 % % < - - % = = < ; < 6 3 u t 7 p 3 ; 5                                     ",
"                L ; 1 % @ @ - % $ $ % % = = $ - < 7 6 ; 6 6 = ;                                     ",
"                  t % O o o O @ O o O % # $ # $ - 1 3 : 1 1 % %                                     ",
"                  1 $ o X . . . . . . o $ $ @ = - 3 1 ; < 1 % # #                                   ",
"                  - @ . . . . . . . . . O # @ % - ; = % - - % $ %                                   ",
"                  % $ o o X X O o o X X o # % %   - % # $ + + @ %                                   ",
"                  % = # # @ @         # @             # O o + + $                                   ",
"                  - ; % @ % $                         # O o + # $                                   "
};
