/* XPM */
static char *result[] = {
/* columns rows colors chars-per-pixel */
"50 50 156 2 ",
"   c #030302",
".  c #080705",
"X  c #090907",
"o  c #0D0C09",
"O  c #100F0C",
"+  c #13120E",
"@  c #161511",
"#  c #191712",
"$  c #1C1A14",
"%  c #211D16",
"&  c #291F16",
"*  c #211F18",
"=  c #24221A",
"-  c #2A241C",
";  c #2E281F",
":  c #33261D",
">  c #33291F",
",  c #2E2A21",
"<  c #332C23",
"1  c #392C21",
"2  c #353027",
"3  c #3B3126",
"4  c #373228",
"5  c #3B352A",
"6  c #3E392D",
"7  c #423225",
"8  c #483426",
"9  c #41372B",
"0  c #493729",
"q  c #423A2E",
"w  c #4A3C2F",
"e  c #533D2D",
"r  c #453D31",
"t  c #4A3F31",
"y  c #474134",
"u  c #4C4235",
"i  c #4D4639",
"p  c #544435",
"a  c #5A4534",
"s  c #534738",
"d  c #5B4738",
"f  c #554A3B",
"g  c #5A4C3D",
"h  c #614735",
"j  c #614D3B",
"k  c #6C523E",
"l  c #5A4F40",
"z  c #5E5142",
"x  c #635444",
"c  c #695645",
"v  c #665847",
"b  c #695847",
"n  c #63574C",
"m  c #65594A",
"M  c #6A5B4A",
"N  c #735742",
"B  c #745844",
"V  c #7C5C47",
"C  c #735D4B",
"Z  c #7D5E49",
"A  c #695E51",
"S  c #73614E",
"D  c #7B624D",
"F  c #6C6151",
"G  c #6C6559",
"H  c #746553",
"J  c #786753",
"K  c #7B6A56",
"L  c #756858",
"P  c #7D6D5A",
"I  c #7E705D",
"U  c #7A6E61",
"Y  c #7F7160",
"T  c #7E756C",
"R  c #805F49",
"E  c #81634E",
"W  c #836A55",
"Q  c #8A6C55",
"!  c #816E5D",
"~  c #8B6E58",
"^  c #84725D",
"/  c #8B725D",
"(  c #917057",
")  c #91735C",
"_  c #9B755C",
"`  c #9E795F",
"'  c #837563",
"]  c #8A7661",
"[  c #8D7A65",
"{  c #857A6B",
"}  c #8B7D6B",
"|  c #937C64",
" . c #987C67",
".. c #917F6A",
"X. c #987F69",
"o. c #9F8267",
"O. c #95826C",
"+. c #9A806B",
"@. c #8C877F",
"#. c #968572",
"$. c #998974",
"%. c #958B7C",
"&. c #9D8F7A",
"*. c #A4836B",
"=. c #B08A6D",
"-. c #A28C74",
";. c #A88971",
":. c #B48E72",
">. c #A79176",
",. c #A3947F",
"<. c #AA937B",
"1. c #B29176",
"2. c #BA9173",
"3. c #B49379",
"4. c #B59C7F",
"5. c #968C81",
"6. c #9A9081",
"7. c #A29282",
"8. c #AD9A85",
"9. c #A49A8B",
"0. c #AB9D8A",
"q. c #B49D83",
"w. c #B99F81",
"e. c #B49E88",
"r. c #B7A187",
"t. c #BCA386",
"y. c #B5A28B",
"u. c #B9A48A",
"i. c #AFA596",
"p. c #B0A493",
"a. c #BDAA92",
"s. c #B1A99E",
"d. c #BDB9B2",
"f. c #C7A082",
"g. c #C2A98E",
"h. c #CBAA8F",
"j. c #C4AE95",
"k. c #C6B196",
"l. c #C9B395",
"z. c #C5B39B",
"x. c #CFB799",
"c. c #D2BC9F",
"v. c #C6B9A5",
"b. c #D0BEA8",
"n. c #C4BDB4",
"m. c #D5C0A7",
"M. c #D2C2AD",
"N. c #DCC5A9",
"B. c #DFC9AD",
"V. c #C9C3BB",
"C. c #DBCAB2",
"Z. c #E6D0B6",
"A. c #E7D2B8",
"S. c #E9D4B8",
"D. c #E3DDD5",
"F. c None",
/* pixels */
"F.F.F.F.F.F.F.F.F.F.F.F.F.F.F.F.F.F.F.F.F.F.F.F.F.F.F.F.F.F.F.F.F.F.F.F.F.F.F.F.F.F.F.F.F.F.F.F.F.F.",
"F.F.F.F.F.F.F.F.F.F.F.F.F.F.F.F.F.F.F.F.F.F.F.F.F.F.F.F.F.F.F.F.F.F.F.F.F.F.F.F.F.F.F.F.F.F.F.F.F.F.",
"F.F.F.F.F.F.F.F.F.F.F.F.F.F.F.F.F.F.F.F.F.F.F.F.F.F.F.F.F.F.F.F.F.F.F.F.F.F.F.F.F.F.F.F.F.F.F.F.F.F.",
"F.F.F.F.F.F.F.F.F.F.F.F.F.F.F.F.F.F.F.F.F.F.F.F.F.F.F.F.m g b I F.F.F.F.F.F.F.F.F.F.F.F.F.F.F.F.F.F.",
"F.F.F.F.F.F.F.F.F.F.F.F.F.F.F.F.F.F.F.F.F.F.F.F.F.F.F.s 3 < % q g F.F.F.F.F.F.F.F.F.F.F.F.F.F.F.F.F.",
"F.F.F.F.F.F.F.F.F.F.F.F.F.F.F.F.F.F.F.F.F.F.F.F.F.F.x x u = # 2 u F F.F.F.F.F.F.F.F.F.F.F.F.F.F.F.F.",
"F.F.F.F.F.F.F.F.F.F.F.F.F.F.F.F.F.F.F.F.F.F.F.F.F.F.S  .Q p t D b M F.F.F.F.F.F.F.F.F.F.F.F.F.F.F.F.",
"F.F.F.F.F.F.F.F.F.F.F.F.F.F.F.F.F.F.F.F.F.F.F.F.F.F.c =._ k j ( o.I F.F.F.F.F.F.F.F.F.F.F.F.F.F.5 F.",
"F.F.F.F.F.F.F.F.F.F.F.F.F.F.F.F.F.F.F.F.F.F.F.F.F.F.W 2.D h p j 1.| F.F.F.F.F.F.F.F.F.F.F.F.F.y F.F.",
"F.F.F.F.F.F.F.F.F.F.F.F.F.F.F.F.F.F.F.F.F.F.F.F.F.C D h.+./ ] C j.*.F.F.F.F.F.F.F.F.F.F.F.F.u F.F.F.",
"F.F.F.F.F.F.F.F.F.F.F.F.F.F.F.F.F.F.F.F.F.F.F.F.F.W g 3.:.e.<.) f.Q F.F.F.F.F.F.F.F.F.F.F.F.r F.F.F.",
"F.F.F.F.F.F.F.F.F.F.F.F.F.F.F.F.F.F.F.F.F.F.F.F.F.| d Q X.X.E ` 2.W +.F.F.F.F.F.F.F.F.F.F.i F.F.F.F.",
"F.F.F.F.F.F.F.F.F.F.F.F.F.F.F.F.F.F.F.F.F.F.F.F.F.~ 0 h 2.<.E X.Z j | 6.F.F.F.F.F.F.F.F.f F.F.F.F.F.",
"F.F.F.F.F.F.F.F.F.F.F.F.F.F.F.F.F.F.F.F.F.F.F.F.F.( e & ~ 2.R ` Z d D m L 0.F.F.F.F.F.r i F.F.F.F.F.",
"F.F.F.F.F.F.F.F.F.F.F.F.F.F.F.F.F.F.F.F.F.F.F.j. .N e : 8 R h R c N d q s $.M.F.F.F.F.4 F.F.F.F.F.F.",
"F.F.F.F.F.F.F.F.F.F.F.F.F.F.F.F.F.F.F.F.F.F.B.8.x 1 e & & 7 7 & - Z x r 6 ' { v.F.F.5 F.F.F.F.F.F.F.",
"F.F.F.F.F.F.F.F.F.F.F.F.F.F.F.F.F.F.F.F.F.F.y.H x = e > & % & % : k W g y l I 7.F.q q F.F.F.F.F.F.F.",
"F.F.F.F.F.F.F.F.F.F.F.F.F.F.F.F.F.F.F.F.F.S.^ x b - > 0 & > : & > B / P l i z L { s F.F.F.F.F.F.F.F.",
"F.F.F.F.F.F.F.F.F.F.F.F.F.F.F.F.F.F.F.F.a.B.K x x 5 - > 1 - 1 : 7 N ^ -.z 4 6 M M F F.F.F.F.F.F.F.F.",
"F.F.F.F.F.F.F.F.F.F.F.F.F.F.F.F.F.F.F.&.{ >.b 9 z q 3 - 0 1 > & 3 j J <.i * 2 g d -.F.F.F.F.F.F.F.F.",
"F.F.F.F.F.F.F.F.F.F.F.F.F.F.F.F.F.F.F.z.u.K w - 9 9 9 $ 3 g 5 - w f ^ O.< - b Q X.<.y.F.F.F.F.F.F.F.",
"F.F.F.F.F.F.F.F.F.F.F.F.F.F.F.F.F.F.F.C.8.A 5 < 3 q 3 # < g w p 3 f / S < i M D  .q.O.0.F.F.F.F.F.F.",
"F.F.F.F.F.F.F.F.F.F.F.F.F.F.F.F.F.F.F.C...{ - ; < t < % - q 5 g s r ! s F.p.#.! / ;.K P F.F.F.F.F.F.",
"F.F.F.F.F.F.F.F.F.F.F.F.F.F.F.F.F.F.F.m.H $.g - % < < ; = - > g C s b r %.i.' q w p d S z F.F.F.F.F.",
"F.F.F.F.F.F.F.F.F.F.F.F.F.F.F.F.F.F.F.N.b H ^ p % - 1 < - ; 5 9 < , < l 0.5.F.= - ; d x z F.F.F.F.F.",
"F.F.F.F.F.F.F.F.F.F.F.F.F.F.F.F.F.F.F.Z.H q ^ K u q q < ; ; - * < 4 4 U ' F.F.F.9 < q u F.F.F.F.F.F.",
"F.F.F.F.F.F.F.F.F.F.F.F.F.F.F.F.F.F.A.N.8.5 c ' b m 5 = + @ # , 4 6 U 7.F.F.F.F.F.F.F.F.F.F.F.F.F.F.",
"F.F.F.F.F.F.F.F.F.F.F.F.F.F.F.F.F.F.m.a.O.w l [ z s , $ + % - 4 4 G n.{ F.F.F.F.F.F.F.F.F.F.F.F.F.F.",
"F.F.F.F.F.F.F.F.F.F.F.F.F.F.F.F.F.F.y.s < , f ! A < * # O # - % 4 d.n.6 < F.F.F.F.F.F.F.F.F.F.F.F.F.",
"F.F.F.F.F.F.F.F.F.F.F.F.F.F.F.F.F.F.' ' n r 3 q t r % * $ + # - 5.D.%., , F.F.F.F.F.F.F.F.F.F.F.F.F.",
"F.F.F.F.F.F.F.F.F.F.F.F.F.F.F.F.F.F.j.y.! q 3 s M t 1 t 1 < r T V.s.m m F.F.F.F.F.F.F.F.F.F.F.F.F.F.",
"F.F.F.F.F.F.F.F.F.F.F.F.F.F.F.F.F.F.F.u.J s 9 f x - < < < [ x < m G m [ M.F.F.F.F.F.F.F.F.F.F.F.F.F.",
"F.F.F.F.F.F.F.F.F.F.F.F.F.F.F.F.F.F.F.r.$.g 5 q y = < 2 f 8.< : C l f J q.m.F.F.F.F.F.F.F.F.F.F.F.F.",
"F.F.F.F.F.F.F.F.F.F.F.F.F.F.F.F.F.F.t.g.<.m u f g < u u ! ' % 1 x x l b | b.F.F.F.F.F.F.F.F.F.F.F.F.",
"F.F.F.F.F.F.F.F.F.F.F.F.F.F.F.F.F.F.t.t.^ m g z s g s q 5.9.w 5 l t < i / r.C.F.F.F.F.F.F.F.F.F.F.F.",
"F.F.F.F.F.F.F.F.F.F.F.F.F.F.F.F.F.l.t.>.L M q x f k s > z 9.' u u - , f M P z.F.F.F.F.F.F.F.F.F.F.F.",
"F.F.F.F.F.F.F.F.F.F.F.F.F.F.F.F.F.x.4.<.S f < M b g ; < > ; 3 < * - - 4 x ] j.Z.F.F.F.F.F.F.F.F.F.F.",
"F.F.F.F.F.F.F.F.F.F.F.F.F.F.F.F.F.c.t.4.S 5 u v s q - 3 q < - # # * - * 5 x / j.F.F.F.F.F.F.F.F.F.F.",
"F.F.F.F.F.F.F.F.F.F.F.F.F.F.F.F.F.t.O.] s y s w q 5 4 < 3 2 = @ O $ + # * 1 p H <.F.F.F.F.F.F.F.F.F.",
"F.F.F.F.F.F.F.F.F.F.F.F.F.F.F.F.F.4.M s y 5 u q 4 5 = $ ; - $ # # O O # * % , s ] F.F.F.F.F.F.F.F.F.",
"F.F.F.F.F.F.F.F.F.F.F.F.F.F.F.F.F.^ q 2 y y y y 6 u , = < $ $ * , $ + $ - , < q K g.F.F.F.F.F.F.F.F.",
"F.F.F.F.F.F.F.F.F.F.F.F.F.F.F.F.F.F , , 5 y y i 6 6 6 4 < - = $ * * $ * = * q m M [ F.F.F.F.F.F.F.F.",
"F.F.F.F.F.F.F.F.F.F.F.F.F.F.F.F.F.F.4 = 2 i 6 y r 4 4 , - , * * $ * = , $ * 4 r < z a.F.F.F.F.F.F.F.",
"F.F.F.F.F.F.F.F.F.F.F.F.F.F.F.F.F.F., * 4 6 , 5 5 , = $ = $ = $ @ $ $ * @ @ $ , - P F.F.F.F.F.F.F.F.",
"F.F.F.F.F.F.F.F.F.F.F.F.F.F.F.F.F.F.* $ 2 , , 2 2 = $ @ @ @ $ X X X + o X X o * y F.F.F.F.F.F.F.F.F.",
"F.F.F.F.F.F.F.F.F.F.F.F.F.F.F.F.F.@ @ $ , , = 2 2 = * O $ $ X             X X # , F.F.F.F.F.F.F.F.F.",
"F.F.F.F.F.F.F.F.F.F.F.F.F.F.F.F.F.* @ $ = = $ * , = $ @ @ o                   + - F.F.F.F.F.F.F.F.F.",
"F.F.F.F.F.F.F.F.F.F.F.F.F.F.F.F.F.* @ O O @ @ @ * F.$ $ @ X   X X X X X X X X $ $ F.F.F.F.F.F.F.F.F.",
"F.F.F.F.F.F.F.F.F.F.F.F.F.F.F.F.F.$ o o X o $ F.F.F.F.F.F.@ @ F.F.F.F.+ + @ @ $ $ F.F.F.F.F.F.F.F.F.",
"F.F.F.F.F.F.F.F.F.F.F.F.F.F.F.F.F.@ @ + X o @ F.F.F.F.F.F.F.F.F.F.F.F.# # + $ , = F.F.F.F.F.F.F.F.F."
};
