/* XPM */
static char *c6305fff2b404a82c45ee46df17f9393PvxZYjCWKv7K5WG3[] = {
/* columns rows colors chars-per-pixel */
"50 50 187 2 ",
"   c None",
".  c #7B4823",
"X  c #784622",
"o  c #893E02",
"O  c #944503",
"+  c #9C4602",
"@  c #9D4802",
"#  c #A24A02",
"$  c #AD4D01",
"%  c #A74602",
"&  c #B74E04",
"*  c #BB5303",
"=  c #B75608",
"-  c #A3561F",
";  c #A95515",
":  c #B25A0C",
">  c #935222",
",  c #9B5522",
"<  c #A25722",
"1  c #A35821",
"2  c #A95A21",
"3  c #B35E21",
"4  c #B76023",
"5  c #BC6121",
"6  c #C35600",
"7  c #C85300",
"8  c #C65801",
"9  c #CB5900",
"0  c #D25C00",
"q  c #DB5E00",
"w  c #D65805",
"e  c #C75A13",
"r  c #E75D00",
"t  c #DD6201",
"y  c #D76702",
"u  c #CD641D",
"i  c #C66313",
"p  c #D66A1F",
"a  c #DC6A1F",
"s  c #DD6315",
"d  c #E36300",
"f  c #EB6401",
"g  c #E16C02",
"h  c #ED6800",
"j  c #F46400",
"k  c #FA6600",
"l  c #F46A00",
"z  c #FC6D00",
"x  c #E07508",
"c  c #FF7400",
"v  c #FF7B00",
"b  c #FF7A0C",
"n  c #FB770D",
"m  c #EB6E1E",
"M  c #E76912",
"N  c #F36E11",
"B  c #EC711D",
"V  c #E57218",
"C  c #F77916",
"Z  c #CD6923",
"A  c #C86A28",
"S  c #D56B22",
"D  c #DC6D21",
"F  c #CA7836",
"G  c #D27C3D",
"H  c #E26E21",
"J  c #E86F21",
"K  c #E47123",
"L  c #E97A29",
"P  c #8D694D",
"I  c #B16F42",
"U  c #AB774F",
"Y  c #BC7648",
"T  c #AF7F5E",
"R  c #C07745",
"E  c #FF8401",
"W  c #FF8902",
"Q  c #FF8D0B",
"!  c #FF9106",
"~  c #FF920B",
"^  c #FF9A0F",
"/  c #FF8B12",
"(  c #FF9D12",
")  c #FF961D",
"_  c #FF9210",
"`  c #FFA51A",
"'  c #FFA51A",
"]  c #CA823E",
"[  c #F98724",
"{  c #FF9224",
"}  c #FF912A",
"|  c #FF9D27",
" . c #EB8433",
".. c #F78B36",
"X. c #FFAE22",
"o. c #FFB126",
"O. c #FFB82D",
"+. c #FFA43A",
"@. c #FFBD31",
"#. c #FFC135",
"$. c #FFC539",
"%. c #B38362",
"&. c #B3886C",
"*. c #CB8542",
"=. c #CB8D4A",
"-. c #C98749",
";. c #CA914E",
":. c #CA9B58",
">. c #F59946",
",. c #FFA343",
"<. c #FFA54C",
"1. c #FFAE48",
"2. c #FFA352",
"3. c #FEAB54",
"4. c #FFBD53",
"5. c #FFB45C",
"6. c #FFBB5D",
"7. c #EAA66D",
"8. c #FFBC6D",
"9. c #FFB766",
"0. c #EFAE79",
"q. c #FFBF76",
"w. c #FFC656",
"e. c #FFD05C",
"r. c #FFC26B",
"t. c #FFC164",
"y. c #FFD964",
"u. c #FFC17B",
"i. c #AA958C",
"p. c #A99B95",
"a. c #A09B9F",
"s. c #99A4B4",
"d. c #B7A8A0",
"f. c #A7A8B0",
"g. c #DEB99F",
"h. c #FAB581",
"j. c #E4B792",
"k. c #C5BAB7",
"l. c #FFC383",
"z. c #FFC38D",
"x. c #FFCA97",
"c. c #FFD19E",
"v. c #FFD4AA",
"b. c #FFD7AA",
"n. c #FFDDB6",
"m. c #FFDBBA",
"M. c #FED3B1",
"N. c #FFE0BD",
"B. c #93AAC4",
"V. c #9CB3CC",
"C. c #AABACE",
"Z. c #A5BBD4",
"A. c #ADC4DB",
"S. c #B1C7DE",
"D. c #B9CADC",
"F. c #B4C9E0",
"G. c #BDD1E5",
"H. c #BED4EA",
"J. c #FCDDC2",
"K. c #FFE3C2",
"L. c #FFE7CD",
"P. c #EDE4DB",
"I. c #FFE8D4",
"U. c #F7E8D9",
"Y. c #C0D5EA",
"T. c #C6DCEF",
"R. c #D2DAE3",
"E. c #C7DEF1",
"W. c #CBDFF4",
"Q. c #CCE2F5",
"!. c #D4E6F6",
"~. c #D4E8F9",
"^. c #DCEFFC",
"/. c #DCF0FD",
"(. c #F3EBE1",
"). c #FFF2E5",
"_. c #FFF4EA",
"`. c #E4F6FE",
"'. c #EBFBFF",
"]. c #F4FEFF",
"[. c #FFFDFA",
"{. c #F9FFFF",
"}. c white",
"|. c #FEFFFF",
" X c #FCFFFF",
".X c #FFFFFF",
"XX c #FFFAF5",
/* pixels */
"                                          : o # % + o :                                             ",
"                                          y y y x g g 0                                             ",
"                                        # f c E _ E b d #                                           ",
"                                        $ f v Q Q E v f $                                           ",
"                                        * l c E / E v l *                                           ",
"                                        8 z v E Q W v l 8                                           ",
"                                        0 l v W Q W v c 0 @                                         ",
"                                      @ t c v W Q W v c t #                                         ",
"                                      U V c v E E W v b L %.                                        ",
"                                      D.P.v.z.l.l.z.x.m.U.H.                                        ",
"                                      T.{..X.X.X.X.X.X.X{.Q.B.                                      ",
"                                    V.~.{..X.X.X.X.X.X.X{.^.Z.                                      ",
"                                    Z./..X.X.X.X.X.X.X.X.X`.A.                                      ",
"                                    S.`..X.X.X.X.X.X.X.X.X'.G.                                      ",
"                                    G.'..X.X.X.X.X.X.X.X.X'.E.B.                                    ",
"                                  B.E.{..X.X.X.X.X.X.X.X.X{.~.V.                                    ",
"                                  V.~.{..X.X.X.X.X.X.X.X.X{./.Z.                                    ",
"                                  p./.{..X.X.X.X.X.X.X.X.X.X`.d.                                    ",
"                                  : 7.J._.[..X.X.X.X.X[.).m.7.i O                                   ",
"                                O 6 h n } 2.9.q.u.u.9.,.} b l q #                                   ",
"                                @ 0 l c v v E E W W E v v c z t $                                   ",
"                                % t l c v E E W W W E E v v z d *                                   ",
"                                = d z c v E E W W W E E v v c f 8 O                                 ",
"                              O * f c c v E E E W W E E v c c l 0 #                                 ",
"                              @ 9 h c v v E W W W W E E v v c l q $                                 ",
"                              ; 0 l z c v v E W W W W E v v c z r = P                               ",
"                              &.t l c v v E E W W W W E v v c z d -.s.                              ",
"                          Z a.G.j.[ c c v E E W W W W v E v v C 0.R.C.Y S Z                         ",
"                    S S D A f.W.'.U.x.2.} / W W W W W / } <.z.I.].^.S.%.S S S S                     ",
"                  S S S S Y C.~.]..X.X.X).L.m.b.v.b.m.L.).[..X.X{.`.H.i.S S S S Z                   ",
"                  S S p S &.F.^.{..X.X.X.X.X.X.X.X.X.X.X.X.X.X.X{.'.W.f.F p S S S                   ",
"                S S S S S i.H.`.{..X.X.X.X.X.X.X.X.X.X.X.X.X.X.X.X].!.C.Y p D S S                   ",
"                S S S S Z p.W.'..X.X.X.X.X.X.X.X.X.X.X.X.X.X.X.X.X{.^.D.I S S S S S                 ",
"                S D S D e T !.'..X.X.X.X.X.X.X.X.X.X.X.X.X.X.X.X.X{.`.k.; s D D S S                 ",
"              S D S D D = = g.{..X.X.X.X.X.X.X.X.X.X.X.X.X.X.X.X.X.XP.G % u D D D S                 ",
"              S D D D D & 7 M h.)..X.X.X.X.X.X.X.X.X.X.X.X.X.X[.XXM. .q & e H D H D S               ",
"              D D D H a 7 w j k ..z.L.XX.X.X.X{..X.X.X.X.X[.).v.2.b k r 7 e H D D D D               ",
"            S D D D H J e r k z c v / ,.8.x.b.N.K.K.n.c.u.3.} v c z z j w M J D D D D S             ",
"            D D H D H J m r k z c v v v E E W ! Q Q W E E E v v c c z k r m J H D D D D             ",
"            D D D H J J m k z c c v E E E E W W W W W W E E E v v c z z N J J H H D D D             ",
"          S D D D H H J J N c c c v E E E E W W W W W W E E E v v c c c B J H H H D D D S           ",
"          D D D D H H H J m v E v E E E E E W W W W W W E E E E v v E C J K H D H H D D D           ",
"          D D D D D H H K K C E E E E E W W W W ! W W W W E E E E E E J J H V D D D D D D           ",
"        S D D D D H H H H K K [ E E W W W ~ ' ' o.o.` ^ ! W W W E Q [ K K H K D D D D D D           ",
"        S D D D D D H D H K V ..+.Q E W W ~ ' O.$.#.o.^ ! W E W ) <. .V D K a K D D D D D           ",
"        4 S D D D D D H D H D L 3.5.+.) ~ ~ ( o.#.@.` ^ ~ _ | 1.5.>.H D K a D D D D D D Z           ",
"          2 Z S D D D H D H D K >.9.r.r.w.6.w.e.y.y.e.w.4.t.r.8.5. .H H D K K D D D S Z ,           ",
"          . , 2 4 4 4 5 5 5 5 4 A ] *.*.*.-.;.:.:.:.:.=.=.*.] G F A 5 4 5 5 4 4 4 2 2 > .           ",
"          . > , < < 1 1 1 1 1 1 1 < 1 < < 1 1 1 < < - - < - < < , 1 < < 2 2 < < < < , > .           ",
"              , , < < < < < < < < < < < < < < < < < < < < < < < < < < < , < < < < , ,               "
};
