/* XPM */
static char *_581b736103c46a8ae7f869cd4480f6cPvf7Qlcsk0rTOFSU[] = {
/* columns rows colors chars-per-pixel */
"50 50 255 2 ",
"   c None",
".  c #010202",
"X  c #020202",
"o  c gray1",
"O  c #040404",
"+  c #050404",
"@  c gray2",
"#  c #060606",
"$  c #070707",
"%  c gray3",
"&  c #090808",
"*  c #090909",
"=  c #0A0909",
"-  c gray4",
";  c #0B0A0A",
":  c #0B0B0B",
">  c #0C0B0B",
",  c #0C0C0C",
"<  c #0D0C0C",
"1  c gray5",
"2  c #0E0D0D",
"3  c #0E0E0E",
"4  c #0F0E0E",
"5  c gray6",
"6  c #100F0F",
"7  c #101010",
"8  c #111010",
"9  c #111111",
"0  c #121111",
"q  c gray7",
"w  c #131212",
"e  c #131313",
"r  c #141313",
"t  c gray8",
"y  c #151414",
"u  c #151515",
"i  c #161515",
"p  c #151616",
"a  c #161616",
"s  c #171616",
"d  c gray9",
"f  c #181717",
"g  c #181818",
"h  c #191818",
"j  c #191919",
"k  c gray10",
"l  c #1B1B1B",
"z  c #1C1B1B",
"x  c gray11",
"c  c #1D1D1D",
"v  c #1E1E1E",
"b  c gray12",
"n  c #201F1F",
"m  c #202020",
"M  c gray13",
"N  c #222222",
"B  c #232323",
"V  c #232424",
"C  c gray14",
"Z  c #252525",
"A  c gray15",
"S  c #272727",
"D  c #282727",
"F  c #282828",
"G  c #292828",
"H  c gray16",
"J  c #2A2929",
"K  c #2A2A2A",
"L  c #2B2A2A",
"P  c gray17",
"I  c #2C2B2B",
"U  c #2C2C2C",
"Y  c #2D2D2D",
"T  c gray18",
"R  c #2F2E2E",
"E  c #2F2F2F",
"W  c gray19",
"Q  c #313131",
"!  c #323232",
"~  c gray20",
"^  c #343333",
"/  c #343434",
"(  c #353535",
")  c gray21",
"_  c #373737",
"`  c #383737",
"'  c gray22",
"]  c #393838",
"[  c #393939",
"{  c #3A3A3A",
"}  c gray23",
"|  c #3C3C3B",
" . c #3C3C3C",
".. c #3D3D3C",
"X. c gray24",
"o. c #3E3E3E",
"O. c #3F3F3F",
"+. c gray25",
"@. c #414141",
"#. c gray26",
"$. c #434343",
"%. c #444444",
"&. c #454544",
"*. c gray27",
"=. c #464645",
"-. c #464646",
";. c gray28",
":. c #484848",
">. c #494949",
",. c #4A4949",
"<. c gray29",
"1. c #4B4B4B",
"2. c #4C4C4C",
"3. c gray30",
"4. c #4E4E4E",
"5. c gray31",
"6. c #505050",
"7. c #515151",
"8. c gray32",
"9. c #535353",
"0. c gray33",
"q. c #555555",
"w. c #565656",
"e. c gray34",
"r. c #585858",
"t. c #595958",
"y. c gray35",
"u. c #5A5A5A",
"i. c #5B5B5A",
"p. c #5B5B5B",
"a. c gray36",
"s. c #5D5C5C",
"d. c #5D5D5D",
"f. c #5E5D5D",
"g. c gray37",
"h. c #5F5F5F",
"j. c #606060",
"k. c #616160",
"l. c gray38",
"z. c #626262",
"x. c gray39",
"c. c #646464",
"v. c #656464",
"b. c #656565",
"n. c #666665",
"m. c gray40",
"M. c #676766",
"N. c #676767",
"B. c #686867",
"V. c #686868",
"C. c DimGray",
"Z. c #6A6A6A",
"A. c #6B6B6A",
"S. c gray42",
"D. c #6C6C6C",
"F. c #6D6D6C",
"G. c #6D6D6D",
"H. c gray43",
"J. c #6F6F6E",
"K. c #6F6F6F",
"L. c gray44",
"P. c #717171",
"I. c #727272",
"U. c #737372",
"Y. c gray45",
"T. c #747373",
"R. c #747473",
"E. c #747474",
"W. c gray46",
"Q. c #767676",
"!. c #777777",
"~. c gray47",
"^. c #797978",
"/. c #797979",
"(. c gray48",
"). c #7B7B7B",
"_. c #7C7C7C",
"`. c gray49",
"'. c #7E7E7E",
"]. c #7F7F7E",
"[. c gray50",
"{. c #808080",
"}. c #818181",
"|. c #828281",
" X c gray51",
".X c #838382",
"XX c #838383",
"oX c #848484",
"OX c #858584",
"+X c gray52",
"@X c #868685",
"#X c #868686",
"$X c gray53",
"%X c #888888",
"&X c #898989",
"*X c #8A8A89",
"=X c gray54",
"-X c #8B8B8B",
";X c gray55",
":X c #8D8D8D",
">X c #8E8E8D",
",X c #8E8E8E",
"<X c gray56",
"1X c #90908F",
"2X c #909090",
"3X c gray57",
"4X c #929292",
"5X c #939393",
"6X c #949493",
"7X c gray58",
"8X c #959595",
"9X c gray59",
"0X c #979797",
"qX c #989898",
"wX c gray60",
"eX c #9A9A9A",
"rX c #9B9B9B",
"tX c gray61",
"yX c #9D9D9D",
"uX c gray62",
"iX c #9F9F9F",
"pX c #A0A0A0",
"aX c gray63",
"sX c #A2A2A2",
"dX c gray64",
"fX c #A4A4A4",
"gX c #A5A5A5",
"hX c gray65",
"jX c #A7A7A7",
"kX c gray66",
"lX c #A9A9A9",
"zX c #AAAAAA",
"xX c gray67",
"cX c #ACACAC",
"vX c gray68",
"bX c #AEAEAE",
"nX c #AFAFAF",
"mX c gray69",
"MX c #B1B1B1",
"NX c #B2B2B2",
"BX c gray70",
"VX c #B4B4B4",
"CX c gray71",
"ZX c #B6B6B6",
"AX c #B7B7B7",
"SX c gray72",
"DX c #B9B9B9",
"FX c #BBBBBB",
"GX c gray74",
"HX c #C0C0C0",
"JX c gray78",
"KX c gray80",
"LX c #CDCDCD",
"PX c #CECECE",
"IX c gray81",
/* pixels */
"                                                                                                    ",
"                                                                                                    ",
"                                                                                                    ",
"                                                                                                    ",
"                    kXwX7XoX<XkXnXnXnXkXxXjXiX8X-XQ.                                                ",
"                  tX).f.x.).E.U.Q.).{.-X4XwXiXjXkXkXiX{.C.                                          ",
"                -Xz.r.r.C.c.~.6.:.9.a.x.D.).{.<X8XaXcXAXnXiX                                        ",
"              {.D.'.D.C.$XQ.Q.e.~ ' o.;.8.r.c.J.).oX<XiXnXDXkX                                      ",
"              D.oX<Xc.D.oX'.U.C.W Y W / } ;.6.a.c.U.).%X8XxXAXiX                                    ",
"            ).'.<XoXf.C.U.L.C.Q. .F K Y ~ ' #.:.w.h.D.).oXwXxXNX8X                                  ",
"          wXQ.-X<X).9.r.z.B.c.Q.5.P K K P W ( o.;.8.f.C.~.%XwXmXkX                                  ",
"          aX).{.c.1.:.8.f.c.z.L.c.E Y K K K W ( o.:.8.f.D._.;XpXAXaX                                ",
"        nXjXD.:.W ( ;.w.9.9.r.z.E.( T K K F P W ( O.:.w.z.L.{.7XkXNX<X                              ",
"        AXjXQ.:.~ ~ +.:.;.5.8.5.~.;.T T K F K K ~ { #.:.w.c.Q.$XwXnXiXU.                            ",
"      aXkX4X-XoXc.5.( j y c T ( U.K.;._ ~ Y P Y ( { / T W O.:.r.C.z.w.5.                            ",
"    5.8X'.D.{.8X8XoXD.( j g N F z.wX;X!.l.2.c.C.f.w.2.#.{ / T T K Z N N N j j                       ",
"    $.7XD.4.g._.1X9X9XoXf.W } 8.Q.7X8X;X+XQ.oXpXmXAXNXkXaX8X-X).C.f.5.o.~ P Z N N                   ",
"    :.7XD.:.1.p.L.oX4X<XoX:.;.).%X5XwX0X%XD.D.U._.8XkXmXVXAXDXAXAXAXnXjXwX$XD.9.o.T                 ",
"    +.oXJ.9.+.+.1.8.t.B.D.f.f.!.oX2XwXiXwX+Xl.r.z.c.U.'.+X%X2XwXiXaXjXnXNXVXVXnXiX).8.              ",
"    / x.V.$.F F T { } 1.w.a.z.D.~.{.<XtXiX8X'.0.:.6.e.z.c.f.l.c.D.U.'.oX;X8XiXjXnXAXjX'.            ",
"    c N 2.' m b N { +.' #.1.w.p.c.L.{.wXiXwX8XU.5.2.:.2.y.l.6.:.2.8.r.z.C.Q.{.-X8XjXAXSX{.          ",
"    q 3 ! / c c l P W S ~  .;.5.w.f.L.4XiXiXiXwX'.c.a.0.8.r.l.8.%.#.:.5.r.z.D.!.oX4XdXSXkX).        ",
"    5 5 S P g d j l l c V P / +.:.:.2.0.oXjXkXkXJXdX%Xl.r.a.c.l.8.;.#.:.6.r.c.Q.oX4XdXDXHX8XnX      ",
"    : d Z S d t y y d g l m Z W ( / Z N :.iXVXjX%XwXtX:. .%.2.r.c.r.:.;.5.r.c.U.'.-XwXkXGXkX6X      ",
"    : c K N t q q w r y d j c N S V t 1 V Q.AXAX_.W Y ;.0.%.2.:.8.h.p.1.;.;.O.} +.{ W ~  .f.D.      ",
"    q T P N t 5 7 q q q y y g l c g * d b 1.kXmXkXc.F f.r.c.a.:.U.D.;.K N c j c ( W y q 3 c 5.      ",
"    c ;.! N y 5 6 6 6 7 q q y g j 7 3 c F / $XxXnXaX~.l.8.4X{.#.<XaX( N Z Z j Z ;.{ y q q #.+X      ",
"    b w.#.N N j 6 3 3 3 5 q q t y 1 q g N ~ V.iXtX2X-XY.l.c.y.8.c.{ T T T P b q c K c y q z.'.      ",
"    N 5.( c N T c q 3 3 3 3 7 q q : y W W Y 5.oXoX).Y.D.c.V.C.L.U.{ K P K F c 3 Z T c g j C.5.T     ",
"    ~ g.#.y q S ` Z y 3 > , 3 7 7 3 Z ~ W Y  .S.L.c.f.y.w.y.a.z.f.( K K K F Z c y j j y Z C.T c     ",
"    W U.f.g 3 3 F o.W j 7 , , 3 3 3  .1./ W W 0.l.e.0.2.2.:.:.:.;.{ Z T T K K F V m c g W z.Z c     ",
"    8.D.+.q r ; , N ] ^ n w 3 : 3 7 { 0.2.+.P %.6.2.:.%.+.+.+.o.{ / Z K K Z V N N c c y { 2.j j     ",
"    r.z.K > j c y 3 y Y W V y 3 , q } U.z.} Z _ ;.$.%.O.{ ' ( ~ T K N F K Z n N c x x N ;.E Z F     ",
"      r.` ; ; 3 y c y q g V m t - d ( :.#.F B T o.o.o.~ P C N q 7 y b Z ( T N C N n E :.{ n F Z     ",
"      t.K O O q q ; q g g y y t 1 l r.f.:.C c K _ } E _ $.:.$.S Z ~ ( Z K { ( T ~ :.9.{ j f n N     ",
"      Z q O O c c q ; ; 7 t c y 1 j 8.-XQ.1.l B ~ / N b Z o.f.p.8.8.O.e t c U o.8.#.K t ; y '  .    ",
"      c ; O q j y q 3 1 ; * ; 7 ; j :.{.'.y.g c T K B B b K C.U.f.r.~ q 3 - 7 y j d q ; 3 K c.:.    ",
"        #.;.#.~ N g q 3 1 * * * ; c U.C.r.~ e c Z T ( ~ ( 8.).!.U.C.Z j l d q 3 7 e y c ~ C.U.      ",
"          NX2XD.5.' F c t 7 1 ; O y ).w.{ c 3 q y K 9.c.c.D.U.Q.[.oXw.~ T E W ( o.%.:.:.#.o.E       ",
"            PXAX0XU.8.o.T m g 7 3 q w.:.:.Z ; ; ; - d P o.;.5.w.h.Q.,XE.r.5.;.{ ~ Z j q 7 q         ",
"                KXAXrX~.r.$.~ Z j y { C.D.K * O $ @ O O O * ; 1 q g m j j m N ; . . O x             ",
"                    PXFXaX'.f.;.( Z P S.8.y O o O $ * O * $ $ * ; 3 t g N K T 3 . . w C.            ",
"                        PXGXdX{.z.;.T K N 7 O . ; 1 * ; ; - - 1 1 1 3 3 3 3 3 3 > > w U r.          ",
"                            PXGXjX'.1.N y ; o o ; 1 1 ; ; ; ; ; ; ; ; 1 3 3 3 q q w j N T :.        ",
"                                IXGX-X~ 3 @ @ ; 1 1 1 - 3 1 3 3 3 7 7 q y y j j c c N Z K (         ",
"                                      wX2.Z j g t t y t y y d g j c c c c N N V D K                 ",
"                                                                                                    ",
"                                                                                                    ",
"                                                                                                    ",
"                                                                                                    "
};
