/* XPM */
static char *c1f7ee4b129b4cf88123151efb9ad7e0V0DN1kpCrBET9tln[] = {
/* columns rows colors chars-per-pixel */
"50 50 137 2 ",
"   c None",
".  c #0D0907",
"X  c #130E0B",
"o  c #1B1817",
"O  c #201711",
"+  c #211914",
"@  c #3B2C24",
"#  c #3C3630",
"$  c #4B3529",
"%  c #433932",
"&  c #483930",
"*  c #4C433D",
"=  c #634838",
"-  c #454441",
";  c #504943",
":  c #504F4C",
">  c #585755",
",  c #5E5D5A",
"<  c #62544B",
"1  c #745B4C",
"2  c #6F635B",
"3  c #79675D",
"4  c #636260",
"5  c #696763",
"6  c #6A6967",
"7  c #6D6C6A",
"8  c #716F6B",
"9  c #75726E",
"0  c #757371",
"q  c #787775",
"w  c #7C7A76",
"e  c #7D7C7A",
"r  c #8B5F46",
"t  c #8C6C56",
"y  c #826A5B",
"u  c #A3775D",
"i  c #9D7868",
"p  c #807E7B",
"a  c #A67B64",
"s  c #AA7D65",
"d  c #A27F6D",
"f  c #9A806F",
"g  c #83817D",
"h  c #88847E",
"j  c #9D8576",
"k  c #AC836D",
"l  c #A68A78",
"z  c #B48B74",
"x  c #B88D75",
"c  c #B58F79",
"v  c #B3917D",
"b  c #BB9178",
"n  c #868583",
"m  c #898683",
"M  c #8A8885",
"N  c #8D8C8A",
"B  c #918F8C",
"V  c #93918F",
"C  c #959492",
"Z  c #989795",
"A  c #9B9996",
"S  c #989798",
"D  c #9D9C9A",
"F  c #B59481",
"G  c #B99883",
"H  c #B29B8B",
"J  c #B89D8E",
"K  c #A19F9C",
"L  c #B49E92",
"P  c #A3A19E",
"I  c #ACA19A",
"U  c #A5A4A2",
"Y  c #A9A6A3",
"T  c #AAA9A6",
"R  c #ACABAA",
"E  c #B1AFAC",
"W  c #B3B1AE",
"Q  c #BAB7AF",
"!  c #B5B3B1",
"~  c #B8B7B4",
"^  c #BBB9B6",
"/  c #BDBBBA",
"(  c #C59C83",
")  c #C19D89",
"_  c #CBA187",
"`  c #CDA58B",
"'  c #C2A491",
"]  c #C0A898",
"[  c #C9AB9B",
"{  c #DCB296",
"}  c #D9B69F",
"|  c #C1B1A6",
" . c #D0B6A4",
".. c #D9B7A3",
"X. c #DEBCA6",
"o. c #D5BBAA",
"O. c #DBBEAB",
"+. c #C1BDB6",
"@. c #C1BFBD",
"#. c #C3C1BD",
"$. c #E3C2AB",
"%. c #E2C6B4",
"&. c #E4CDBC",
"*. c #C5C3C2",
"=. c #C9C6C3",
"-. c #CBC9C6",
";. c #C9C7C8",
":. c #CDCBCA",
">. c #D5CDC6",
",. c #D1CFCD",
"<. c #D2D1CE",
"1. c #D5D4D2",
"2. c #D8D7D5",
"3. c #DAD9D6",
"4. c #DCDBD9",
"5. c #E5D2C4",
"6. c #E4D5CA",
"7. c #E5D9D0",
"8. c #E0DFDC",
"9. c #E0DFDD",
"0. c #E1E0DE",
"q. c #E3E1DF",
"w. c #E8E3DE",
"e. c #E4E3E1",
"r. c #E5E3E1",
"t. c #E6E3E1",
"y. c #E7E4E0",
"u. c #E5E4E2",
"i. c #E6E4E2",
"p. c #E6E5E3",
"a. c #E7E5E3",
"s. c #E7E6E4",
"d. c #EDE7E2",
"f. c #E8E7E5",
"g. c #EFEDEA",
"h. c #F3F2F0",
"j. c #F4F2F0",
/* pixels */
"                                                                                                    ",
"                                                                                                    ",
"                                            * # o                                                   ",
"                                          + y j & X                                                 ",
"                                        + 1 ' O.F @                                                 ",
"                                        $ ) L L j @ .                                               ",
"                                        % v ..[ k @ +                                               ",
"                                        ; 1 z i $ X                                                 ",
"                                      3 < y u = X .                                                 ",
"                                    $.&.>. .( t 2                                                   ",
"                                ` ..$.5.7...{ ` G H l                                               ",
"                                ( ` ( X.6.&.%.$.X.o.|                                               ",
"                                b x r [ d.j.j.g.w.y.t.#.                                            ",
"                              a x a f <.9.y.y.9.3.3.4.1.                                            ",
"                              s x     2.3.2.2.,.>.:.:.#.                                            ",
"                              a z       3.8.8.4.2.2.:.                                              ",
"                              k a       2.w.f.u.u.0.<.                                              ",
"                              c         2.u.u.u.0.4.1.I                                             ",
"                              J         4.w.u.u.0.4.2.#.                                            ",
"                              #.u.      2.4.0.8.4.3.1.<.-.                                          ",
"                                1.    =.>.<.2.7.3.3.1.1.,.                                          ",
"                                ^ 2.  #.=.,.2.3.3.3.3.1.*.;.                                        ",
"                                  *.1.=.=.>.<.3.3.3.1.:.*.~ <.                                      ",
"                                  R <.2.1.2.4.4.3.1.1.1.1.^ *.4.                                    ",
"                                  w Z *.-.1.4.4.3.4.4.4.9.4.;.*.1.                                  ",
"                                    M I @.:.1.3.4.3.3.4.9.4.3.;.;.                                  ",
"                                    e B ! -.1.4.4.4.4.3.4.4.3.<.*.                                  ",
"                                  C V Y ~ @.1.4.4.4.4.3.3.4.4.1.,./                                 ",
"                                R U W ^ / / <.9.4.4.3.3.3.3.4.3.1.@.U                               ",
"                                R T ! ~ / / :.4.4.1.<.3.4.3.3.3.1.;.! U                             ",
"                              R Y R E ! / ^ @.4.4.1.,.1.3.4.3.2.1.1.*.R                             ",
"                            R Y U R E R ! ~ / 3.4.,.:.<.2.3.4.3.1.1.:./ R                           ",
"                          R Y U P R ! P T W ^ 3.3.:.:.,.<.1.2.3.3.1.<.*.!                           ",
"                          U D D U W R A Y R ! 1.2.,.<.<.<.<.2.3.3.3.1.-.~ Y                         ",
"                        U D A A U ! Y D P Y ~ <.2.<.1.1.2.<.,.2.3.3.1.<.@.R                         ",
"                      K D D C C T E K A I U Q <.1.<.<.1.2.2.-.1.3.3.2.1.,./ E                       ",
"                    P D D A N C R T Z C A U ~ ,.1.,.-.,.2.3.-.<.2.2.3.2.2.;.W                       ",
"                    A A D V n C R U C C C P ^ :.1.-.=.<.2.3.#.=.2.2.3.2.2.<./ T                     ",
"                  D C D C m g D T D C V M I / :.,.=.=.1.2.3.:.+.:.1.2.2.2.1.:.! A                   ",
"                D A A A N e g P Y A C M h P +.-.<.=.*.,.3.3.<.^ *.2.<.2.2.1.1.;.R                   ",
"              K A C C V e 0 M Y U D V g g K ^ -.,.=.#.;.4.3.2./ / ,.1.2.2.1.1.<.*.K                 ",
"              D N B C N w 9 V R U D N p p A ~ =.<.#.~ #.3.4.4.*.! *.1.1.2.2.1.1.<.~ K               ",
"            U C n V B n 0 q A R U A n 9 p V E #.<.*.Q / 1.4.4.:.! ^ :.1.2.1.1.1.1.;.! V             ",
"  *.;.<./ R S g M V M e 0 n U E P V p 9 w M Y #.:.*.Q / ,.3.4.1.~ Q @.1.2.2.,.<.<.:.*.U n           ",
"*.*.*.@.! K g e n M p 0 0 N T W U M 0 8 g N U ~ :.*.! ! ;.4.3.4.#.E Q :.<.3.1.:.:.:.;./ V           ",
"! W E ! R B g e 7 7 8 7 0 V E ! U n 7 0 M B K ! *.~ ! E ;.3.3.4.*.R Y / ,.<.2.<.;.;.@.! S           ",
"U U D E T S V e , : , 6 0 N U U C q 5 0 N C K W / U C K @.;.<.1.=.P A P / *.;.*.! T P N e           ",
"  N n U R U C e 4 -   6 6           : > 8   M B U g 0 n       R P M m                               ",
"                                                                                                    ",
"                                                                                                    "
};
